' Conceptual diagram (before any meaningful work had even started) of what we're after
' Non-paid actions omitted because they're not involved in the complicated chain of things dealing with feature tier


@startuml

'https://plantuml.com/class-diagram

left to right direction
'// default 35
'skinparam nodesep 50
'// default 60
'skinparam ranksep 30

'skinparam linetype ortho

hide circle
hide methods
hide fields

title "Concept Map - Konami"

package "Client" #dddddd
{
    class Request
}

package "Configuration" #dddddd
{
    class WagerConfig
    class GameControlFile
}

WagerConfig --> BetPack
GameControlFile --> BetPack
BetPack --> Request : GameState
Request --> "Validate Wager" : RequestWager
Request --> "Validate Wager" : FreePlayWager
BetPack --> "Validate Wager"
"Validate Wager" --> "Translate to WagerInput"
"Translate to WagerInput" --> GameLogic

'newpage
'
'left to right direction
''skinparam linetype ortho
''skinparam nodesep 50
''skinparam ranksep 100
'
'hide circle
'hide methods
'hide fields
'
'title "Non-paid action"
'
'WagerConfig --> BetPackPerGame
'GameControlFile --> BetPackPerGame
'
'BetPackPerGame --> UntrustedClient
'
'UntrustedClient --> "Request (No Data)"
'
'"Request (No Data)" --> GameLogic
'
'something --> GameLogic

@enduml
