' After identifying that BoostMapPerGame would map roughly to our BetPack concept,
' We made this diagram to document the chain of dependencies to BoostMapPerGame

@startuml

title "BoostMapPerGame Data Flow (Current) - MX"

'https://plantuml.com/class-diagram

'skinparam nodesep 35
'skinparam ranksep 60

'left to right direction
'skinparam linetype polyline
'skinparam nodesep 5
'skinparam ranksep 5
hide circle
hide methods
hide fields

package MVPlayer {
    class getGetEntry
}

package WebApi {
    class GameControllers
}

package GameApiController {
    class ForBetBoost
    class GetAboutWageringSystemPaid
    class GetValidPaylineWagers
    class GetRToBoostMapPerGame
    class GetRToWagerTierAndCouplingGroups
    class GetTypicalStateRequestData
    class GetValidFullWagersAndBoostTierNumbers
    class GetValidFullWagersAndBoostTierNumbersPrimitive
    class GetPerGameBetBoostTierInfoDto
    class ForGameGetPossiblyAvailableWagerAndTierCouplingGroups
}

package ForJackpotManager {
    class FullGamePackJackpotManager
    class FullGamePack
}

package AllGamesRelated {
    class LogicLayerKnownConfigurationKnowledgeSource
    class GetBoostMapRelatedFromPerGame2
    class GameIDToBoostMapPerGame
    class BMPG1
    class BMPG2
    class BMPG3
    class BuildBoostMapPerGame
}

'PlayStudios.MyVegas.GameLogic.MobileSlots.Games.AllGamesRelatedPlatform.BuildBoostMapPerGame
class BuildBoostMapPerGame

'PlayStudios.MyVegas.GameLogic.MobileSlots.Games.AllGamesRelatedPlatform.BMPG1
BMPG1 --> BuildBoostMapPerGame

'PlayStudios.MyVegas.GameLogic.MobileSlots.Games.AllGamesRelatedPlatform.BMPG2
BMPG2 --> BuildBoostMapPerGame

'PlayStudios.MyVegas.GameLogic.MobileSlots.Games.AllGamesRelatedPlatform.BMPG3
BMPG3 --> BuildBoostMapPerGame

'PlayStudios.MyVegas.Mobile.Slots.WebApi.Controllers.ForJackpotManager.GameIDToBoostMapPerGame
GameIDToBoostMapPerGame --> BMPG1
GameIDToBoostMapPerGame --> BMPG2
GameIDToBoostMapPerGame --> BMPG3

'PlayStudios.MyVegas.GameLogic.MobileSlots.Games.AllGamesRelatedPlatform.GetBoostMapRelatedFromPerGame2
GetBoostMapRelatedFromPerGame2 --> BMPG1
GetBoostMapRelatedFromPerGame2 --> BMPG2
GetBoostMapRelatedFromPerGame2 --> BMPG3

'PlayStudios.MyVegas.GameLogic.MobileSlots.Games.AllGamesRelatedPlatform.LogicLayerKnownConfigurationKnowledgeSource
LogicLayerKnownConfigurationKnowledgeSource --> GetBoostMapRelatedFromPerGame2

'PlayStudios.MyVegas.Mobile.Slots.WebApi.Controllers.ForJackpotManager.FullGamePack
FullGamePack --> LogicLayerKnownConfigurationKnowledgeSource

'PlayStudios.MyVegas.MVPlay.MVMPlatform.AllGames.getGetEntry
getGetEntry --> LogicLayerKnownConfigurationKnowledgeSource


'PlayStudios.MyVegas.Mobile.Slots.WebApi.Controllers.Games.GameApiControllerE.ForGameGetPossiblyAvailableWagerAndTierCouplingGroups
ForGameGetPossiblyAvailableWagerAndTierCouplingGroups --> GameIDToBoostMapPerGame


'PlayStudios.MyVegas.Mobile.Slots.WebApi.Controllers.Games.GameApiControllerE.GetRToWagerTierAndCouplingGroups
GetRToWagerTierAndCouplingGroups --> ForGameGetPossiblyAvailableWagerAndTierCouplingGroups
GameControllers --> GetRToWagerTierAndCouplingGroups : 9

'PlayStudios.MyVegas.Mobile.Slots.WebApi.Controllers.Games.GameApiControllerE.GetRToBoostMapPerGame
GetRToBoostMapPerGame --> ForGameGetPossiblyAvailableWagerAndTierCouplingGroups
GameControllers --> GetRToBoostMapPerGame : 9

'PlayStudios.MyVegas.Mobile.Slots.WebApi.Controllers.Games.GameApiControllerE.GetValidFullWagersAndBoostTierNumbersPrimitive
GetValidFullWagersAndBoostTierNumbersPrimitive --> ForGameGetPossiblyAvailableWagerAndTierCouplingGroups

GetValidPaylineWagers --> GetValidFullWagersAndBoostTierNumbersPrimitive
GameControllers --> GetValidPaylineWagers : 123

GetValidFullWagersAndBoostTierNumbers --> GetValidFullWagersAndBoostTierNumbersPrimitive
GameControllers --> GetValidFullWagersAndBoostTierNumbers : 30

GetPerGameBetBoostTierInfoDto --> GetValidFullWagersAndBoostTierNumbersPrimitive
GameControllers --> GetPerGameBetBoostTierInfoDto : 62

GetTypicalStateRequestData --> GetValidFullWagersAndBoostTierNumbersPrimitive
GameControllers --> GetTypicalStateRequestData : 45



GameControllers --> GetAboutWageringSystemPaid
GetAboutWageringSystemPaid --> ForBetBoost
ForBetBoost --> FullGamePackJackpotManager
FullGamePackJackpotManager --> FullGamePack


@enduml
